<svg width="500" height="500" viewBox="0 0 500 500" fill="none" xmlns="http://www.w3.org/2000/svg">
<g filter="url(#filter0_i_653_142)">
<path d="M250.504 25.5907V141.15H134.946V44.1851C134.951 39.2552 136.912 34.5289 140.398 31.043C143.884 27.5571 148.61 25.5963 153.54 25.5907H250.504ZM271.094 5H153.54C143.147 5.00001 133.181 9.12843 125.832 16.4771C118.483 23.8257 114.355 33.7925 114.355 44.1851V161.74H271.094V5Z" fill="#0C6291"/>
<path d="M250.504 194.871V310.429H213.315V232.059H134.946V194.871H250.504ZM271.094 174.28H114.355V252.65H192.725V331.02H271.094V174.28Z" fill="#A63446"/>
<path d="M325.952 25.5907C330.882 25.5963 335.608 27.5572 339.094 31.0431C342.58 34.529 344.54 39.2553 344.546 44.1851V62.7794H307.358V25.5907H325.952ZM325.952 5.00002H286.767V83.3702H365.137V44.1851C365.137 33.7926 361.008 23.8257 353.66 16.4771C346.311 9.12842 336.344 5.00002 325.952 5.00002Z" fill="#7E1946"/>
<path d="M344.546 116.5V291.835C344.541 296.765 342.58 301.491 339.094 304.977C335.608 308.463 330.882 310.424 325.952 310.429H307.358V116.5H344.546ZM365.137 95.9097H286.767V331.02H325.952C331.098 331.02 336.193 330.006 340.947 328.037C345.701 326.068 350.021 323.182 353.66 319.543C357.298 315.904 360.185 311.585 362.154 306.83C364.123 302.076 365.137 296.981 365.137 291.835V95.9097Z" fill="#0C6291"/>
</g>
<path d="M77.8174 424.236C77.8174 426.734 77.6509 428.981 77.3178 430.98H26.7352C27.1515 435.975 28.9 439.888 31.9808 442.718C35.0615 445.549 38.85 446.964 43.3463 446.964C49.8408 446.964 54.462 444.175 57.2097 438.597H76.0689C74.0706 445.258 70.2404 450.752 64.5785 455.082C58.9166 459.328 51.9641 461.451 43.721 461.451C37.0599 461.451 31.0649 459.994 25.736 457.08C20.4904 454.083 16.3688 449.878 13.3713 444.467C10.4571 439.055 9 432.811 9 425.734C9 418.575 10.4571 412.289 13.3713 406.877C16.2856 401.466 20.3655 397.303 25.6111 394.389C30.8567 391.475 36.8933 390.018 43.721 390.018C50.2988 390.018 56.1689 391.434 61.3312 394.264C66.5768 397.095 70.6151 401.133 73.4461 406.378C76.3603 411.54 77.8174 417.492 77.8174 424.236ZM59.7076 419.241C59.6243 414.745 58.0007 411.165 54.8367 408.501C51.6726 405.753 47.8009 404.38 43.2214 404.38C38.8917 404.38 35.2281 405.712 32.2306 408.376C29.3163 410.957 27.5262 414.578 26.8601 419.241H59.7076Z" fill="#0C6291"/>
<path d="M128.923 390.143C137.166 390.143 143.827 392.766 148.906 398.011C153.985 403.173 156.525 410.416 156.525 419.74V460.327H139.04V422.113C139.04 416.618 137.666 412.414 134.918 409.5C132.17 406.503 128.424 405.004 123.677 405.004C118.848 405.004 115.018 406.503 112.187 409.5C109.439 412.414 108.066 416.618 108.066 422.113V460.327H90.5802V391.142H108.066V399.759C110.397 396.762 113.353 394.431 116.933 392.766C120.597 391.017 124.593 390.143 128.923 390.143Z" fill="#0C6291"/>
<path d="M182.02 382.9C178.94 382.9 176.358 381.943 174.277 380.028C172.278 378.03 171.279 375.574 171.279 372.66C171.279 369.746 172.278 367.331 174.277 365.417C176.358 363.418 178.94 362.419 182.02 362.419C185.101 362.419 187.641 363.418 189.639 365.417C191.72 367.331 192.761 369.746 192.761 372.66C192.761 375.574 191.72 378.03 189.639 380.028C187.641 381.943 185.101 382.9 182.02 382.9ZM190.638 391.142V460.327H173.153V391.142H190.638Z" fill="#0C6291"/>
<path d="M235.016 390.018C240.178 390.018 244.716 391.059 248.63 393.14C252.543 395.138 255.624 397.761 257.872 401.008V391.142H275.482V460.826C275.482 467.237 274.192 472.94 271.61 477.935C269.029 483.014 265.157 487.01 259.995 489.924C254.833 492.921 248.588 494.419 241.261 494.419C231.436 494.419 223.359 492.13 217.031 487.551C210.786 482.972 207.248 476.728 206.415 468.819H223.775C224.691 471.982 226.648 474.48 229.645 476.312C232.726 478.226 236.431 479.184 240.761 479.184C245.84 479.184 249.962 477.644 253.126 474.563C256.29 471.566 257.872 466.987 257.872 460.826V450.086C255.624 453.333 252.501 456.039 248.505 458.204C244.591 460.368 240.095 461.451 235.016 461.451C229.187 461.451 223.859 459.952 219.029 456.955C214.2 453.958 210.37 449.753 207.539 444.342C204.791 438.847 203.417 432.561 203.417 425.485C203.417 418.491 204.791 412.289 207.539 406.877C210.37 401.466 214.158 397.303 218.904 394.389C223.734 391.475 229.104 390.018 235.016 390.018ZM257.872 425.734C257.872 421.489 257.039 417.867 255.374 414.87C253.709 411.789 251.461 409.458 248.63 407.876C245.799 406.211 242.759 405.379 239.512 405.379C236.265 405.379 233.267 406.17 230.52 407.752C227.772 409.333 225.524 411.664 223.775 414.745C222.11 417.742 221.277 421.322 221.277 425.485C221.277 429.647 222.11 433.311 223.775 436.474C225.524 439.555 227.772 441.927 230.52 443.593C233.351 445.258 236.348 446.09 239.512 446.09C242.759 446.09 245.799 445.299 248.63 443.717C251.461 442.052 253.709 439.721 255.374 436.724C257.039 433.644 257.872 429.98 257.872 425.734Z" fill="#0C6291"/>
<path d="M378.488 390.143C386.981 390.143 393.808 392.766 398.971 398.011C404.216 403.173 406.839 410.416 406.839 419.74V460.327H389.354V422.113C389.354 416.701 387.98 412.58 385.232 409.75C382.484 406.836 378.738 405.379 373.991 405.379C369.245 405.379 365.457 406.836 362.626 409.75C359.878 412.58 358.504 416.701 358.504 422.113V460.327H341.019V422.113C341.019 416.701 339.645 412.58 336.898 409.75C334.15 406.836 330.403 405.379 325.657 405.379C320.828 405.379 316.997 406.836 314.167 409.75C311.419 412.58 310.045 416.701 310.045 422.113V460.327H292.56V391.142H310.045V399.509C312.293 396.595 315.166 394.306 318.663 392.641C322.243 390.976 326.157 390.143 330.403 390.143C335.815 390.143 340.644 391.309 344.891 393.64C349.137 395.888 352.426 399.135 354.758 403.381C357.006 399.384 360.253 396.179 364.499 393.765C368.829 391.35 373.492 390.143 378.488 390.143Z" fill="#0C6291"/>
<path d="M418.935 425.485C418.935 418.491 420.309 412.289 423.057 406.877C425.888 401.466 429.676 397.303 434.422 394.389C439.252 391.475 444.622 390.018 450.534 390.018C455.696 390.018 460.192 391.059 464.023 393.14C467.936 395.222 471.058 397.844 473.39 401.008V391.142H491V460.327H473.39V450.211C471.142 453.458 468.019 456.164 464.023 458.329C460.109 460.41 455.571 461.451 450.409 461.451C444.581 461.451 439.252 459.952 434.422 456.955C429.676 453.958 425.888 449.753 423.057 444.342C420.309 438.847 418.935 432.561 418.935 425.485ZM473.39 425.734C473.39 421.489 472.557 417.867 470.892 414.87C469.227 411.789 466.978 409.458 464.148 407.876C461.317 406.211 458.277 405.379 455.03 405.379C451.783 405.379 448.785 406.17 446.038 407.752C443.29 409.333 441.042 411.664 439.293 414.745C437.628 417.742 436.795 421.322 436.795 425.485C436.795 429.647 437.628 433.311 439.293 436.474C441.042 439.555 443.29 441.927 446.038 443.593C448.869 445.258 451.866 446.09 455.03 446.09C458.277 446.09 461.317 445.299 464.148 443.717C466.978 442.052 469.227 439.721 470.892 436.724C472.557 433.644 473.39 429.98 473.39 425.734Z" fill="#0C6291"/>
<defs>
<filter id="filter0_i_653_142" x="114.355" y="5" width="259.782" height="330.02" filterUnits="userSpaceOnUse" color-interpolation-filters="sRGB">
<feFlood flood-opacity="0" result="BackgroundImageFix"/>
<feBlend mode="normal" in="SourceGraphic" in2="BackgroundImageFix" result="shape"/>
<feColorMatrix in="SourceAlpha" type="matrix" values="0 0 0 0 0 0 0 0 0 0 0 0 0 0 0 0 0 0 127 0" result="hardAlpha"/>
<feOffset dx="9" dy="4"/>
<feGaussianBlur stdDeviation="6"/>
<feComposite in2="hardAlpha" operator="arithmetic" k2="-1" k3="1"/>
<feColorMatrix type="matrix" values="0 0 0 0 0 0 0 0 0 0 0 0 0 0 0 0 0 0 0.3 0"/>
<feBlend mode="normal" in2="shape" result="effect1_innerShadow_653_142"/>
</filter>
</defs>
</svg>
