<svg width="2942" height="950" viewBox="0 0 2942 950" fill="none" xmlns="http://www.w3.org/2000/svg">
<path d="M396.731 60V396.731H60V114.183C60.0162 99.8175 65.73 86.0454 75.8877 75.8876C86.0454 65.7299 99.8175 60.0162 114.183 60H396.731ZM456.731 0H114.183C83.8996 2.38694e-05 54.8568 12.03 33.4434 33.4434C12.03 54.8568 2.65216e-05 83.8996 0 114.183V456.731H456.731V0Z" fill="#0C6291"/>
<path d="M396.731 553.269V890H288.365V661.635H60V553.269H396.731ZM456.731 493.269H0V721.635H228.365V950H456.731V493.269Z" fill="#A63446"/>
<path d="M616.586 60C630.952 60.0163 644.724 65.7301 654.881 75.8878C665.039 86.0455 670.753 99.8176 670.769 114.183V168.365H562.404V60H616.586ZM616.586 4.95911e-05H502.404V228.365H730.769V114.183C730.769 83.8996 718.739 54.8568 697.326 33.4434C675.912 12.03 646.87 6.5504e-05 616.586 4.95911e-05Z" fill="#7E1946"/>
<path d="M670.769 324.904V835.817C670.753 850.182 665.039 863.954 654.882 874.112C644.724 884.27 630.952 889.984 616.587 890H562.404V324.904H670.769ZM730.769 264.904H502.404V950H616.587C631.581 950 646.429 947.047 660.282 941.308C674.136 935.57 686.723 927.159 697.326 916.557C707.929 905.954 716.339 893.366 722.078 879.513C727.816 865.66 730.769 850.812 730.769 835.817V264.904Z" fill="#0C6291"/>
<path d="M2941.98 753.398C2941.98 755.54 2941.86 757.806 2941.61 760.196H2887.48C2887.89 766.87 2890.15 772.102 2894.27 775.893C2898.48 779.601 2903.54 781.455 2909.48 781.455C2914.34 781.455 2918.38 780.342 2921.59 778.118C2924.89 775.81 2927.19 772.762 2928.51 768.971H2940.62C2938.81 775.481 2935.19 780.796 2929.75 784.916C2924.31 788.953 2917.55 790.972 2909.48 790.972C2903.05 790.972 2897.28 789.53 2892.17 786.646C2887.15 783.762 2883.19 779.683 2880.31 774.41C2877.42 769.054 2875.98 762.874 2875.98 755.87C2875.98 748.866 2877.38 742.727 2880.18 737.453C2882.99 732.18 2886.9 728.142 2891.93 725.34C2897.04 722.456 2902.89 721.014 2909.48 721.014C2915.9 721.014 2921.59 722.415 2926.53 725.217C2931.48 728.018 2935.27 731.891 2937.91 736.835C2940.62 741.697 2941.98 747.218 2941.98 753.398ZM2930.37 751.049C2930.37 746.764 2929.42 743.098 2927.52 740.049C2925.63 736.918 2923.03 734.569 2919.74 733.004C2916.52 731.356 2912.94 730.532 2908.98 730.532C2903.3 730.532 2898.44 732.344 2894.4 735.97C2890.44 739.596 2888.18 744.622 2887.6 751.049H2930.37Z" fill="#333333"/>
<path d="M2800.9 755.87C2800.9 748.866 2802.31 742.768 2805.11 737.577C2807.91 732.303 2811.78 728.224 2816.73 725.34C2821.75 722.456 2827.48 721.014 2833.91 721.014C2842.23 721.014 2849.07 723.033 2854.42 727.071C2859.86 731.108 2863.45 736.712 2865.18 743.88H2853.06C2851.91 739.76 2849.64 736.506 2846.27 734.116C2842.97 731.726 2838.85 730.532 2833.91 730.532C2827.48 730.532 2822.29 732.756 2818.33 737.206C2814.38 741.573 2812.4 747.794 2812.4 755.87C2812.4 764.027 2814.38 770.331 2818.33 774.78C2822.29 779.23 2827.48 781.455 2833.91 781.455C2838.85 781.455 2842.97 780.301 2846.27 777.994C2849.56 775.687 2851.83 772.391 2853.06 768.106H2865.18C2863.36 775.028 2859.74 780.59 2854.3 784.792C2848.86 788.912 2842.06 790.972 2833.91 790.972C2827.48 790.972 2821.75 789.53 2816.73 786.646C2811.78 783.762 2807.91 779.683 2805.11 774.41C2802.31 769.136 2800.9 762.956 2800.9 755.87Z" fill="#333333"/>
<path d="M2759.05 720.891C2767.29 720.891 2773.96 723.404 2779.07 728.431C2784.18 733.375 2786.73 740.544 2786.73 749.937V789.86H2775.61V751.544C2775.61 744.787 2773.92 739.637 2770.54 736.094C2767.16 732.468 2762.55 730.656 2756.7 730.656C2750.77 730.656 2746.03 732.51 2742.49 736.218C2739.02 739.926 2737.29 745.323 2737.29 752.409V789.86H2726.05V722.127H2737.29V731.768C2739.52 728.307 2742.53 725.629 2746.32 723.734C2750.19 721.839 2754.43 720.891 2759.05 720.891Z" fill="#333333"/>
<path d="M2711.2 753.398C2711.2 755.54 2711.08 757.806 2710.83 760.196H2656.69C2657.1 766.87 2659.37 772.102 2663.49 775.893C2667.69 779.601 2672.76 781.455 2678.69 781.455C2683.55 781.455 2687.59 780.342 2690.81 778.118C2694.1 775.81 2696.41 772.762 2697.73 768.971H2709.84C2708.03 775.481 2704.4 780.796 2698.96 784.916C2693.52 788.953 2686.77 790.972 2678.69 790.972C2672.27 790.972 2666.5 789.53 2661.39 786.646C2656.36 783.762 2652.41 779.683 2649.52 774.41C2646.64 769.054 2645.2 762.874 2645.2 755.87C2645.2 748.866 2646.6 742.727 2649.4 737.453C2652.2 732.18 2656.12 728.142 2661.14 725.34C2666.25 722.456 2672.1 721.014 2678.69 721.014C2685.12 721.014 2690.81 722.415 2695.75 725.217C2700.69 728.018 2704.48 731.891 2707.12 736.835C2709.84 741.697 2711.2 747.218 2711.2 753.398ZM2699.58 751.049C2699.58 746.764 2698.63 743.098 2696.74 740.049C2694.84 736.918 2692.25 734.569 2688.95 733.004C2685.74 731.356 2682.15 730.532 2678.2 730.532C2672.51 730.532 2667.65 732.344 2663.61 735.97C2659.66 739.596 2657.39 744.622 2656.82 751.049H2699.58Z" fill="#333333"/>
<path d="M2630.23 698.396V789.86H2618.98V698.396H2630.23Z" fill="#333333"/>
<path d="M2599.81 698.396V789.86H2588.57V698.396H2599.81Z" fill="#333333"/>
<path d="M2573.72 753.398C2573.72 755.54 2573.59 757.806 2573.35 760.196H2519.21C2519.62 766.87 2521.89 772.102 2526.01 775.893C2530.21 779.601 2535.28 781.455 2541.21 781.455C2546.07 781.455 2550.11 780.342 2553.32 778.118C2556.62 775.81 2558.93 772.762 2560.25 768.971H2572.36C2570.55 775.481 2566.92 780.796 2561.48 784.916C2556.04 788.953 2549.29 790.972 2541.21 790.972C2534.78 790.972 2529.02 789.53 2523.91 786.646C2518.88 783.762 2514.93 779.683 2512.04 774.41C2509.16 769.054 2507.72 762.874 2507.72 755.87C2507.72 748.866 2509.12 742.727 2511.92 737.453C2514.72 732.18 2518.63 728.142 2523.66 725.34C2528.77 722.456 2534.62 721.014 2541.21 721.014C2547.64 721.014 2553.32 722.415 2558.27 725.217C2563.21 728.018 2567 731.891 2569.64 736.835C2572.36 741.697 2573.72 747.218 2573.72 753.398ZM2562.1 751.049C2562.1 746.764 2561.15 743.098 2559.26 740.049C2557.36 736.918 2554.77 734.569 2551.47 733.004C2548.26 731.356 2544.67 730.532 2540.72 730.532C2535.03 730.532 2530.17 732.344 2526.13 735.97C2522.18 739.596 2519.91 744.622 2519.33 751.049H2562.1Z" fill="#333333"/>
<path d="M2432.64 755.87C2432.64 748.866 2434.04 742.768 2436.84 737.577C2439.64 732.303 2443.52 728.224 2448.46 725.34C2453.49 722.456 2459.21 721.014 2465.64 721.014C2473.96 721.014 2480.8 723.033 2486.16 727.071C2491.6 731.108 2495.18 736.712 2496.91 743.88H2484.8C2483.64 739.76 2481.38 736.506 2478 734.116C2474.7 731.726 2470.58 730.532 2465.64 730.532C2459.21 730.532 2454.02 732.756 2450.07 737.206C2446.11 741.573 2444.13 747.794 2444.13 755.87C2444.13 764.027 2446.11 770.331 2450.07 774.78C2454.02 779.23 2459.21 781.455 2465.64 781.455C2470.58 781.455 2474.7 780.301 2478 777.994C2481.3 775.687 2483.56 772.391 2484.8 768.106H2496.91C2495.1 775.028 2491.47 780.59 2486.03 784.792C2480.6 788.912 2473.8 790.972 2465.64 790.972C2459.21 790.972 2453.49 789.53 2448.46 786.646C2443.52 783.762 2439.64 779.683 2436.84 774.41C2434.04 769.136 2432.64 762.956 2432.64 755.87Z" fill="#333333"/>
<path d="M2413.05 789.86L2396.98 764.645L2381.53 789.86H2369.79L2391.66 756.241L2369.79 722.127H2382.52L2398.58 747.218L2413.91 722.127H2425.65L2403.9 755.623L2425.78 789.86H2413.05Z" fill="#333333"/>
<path d="M2325.57 712.857V741.656H2356.97V750.926H2325.57V780.59H2360.68V789.86H2314.33V703.587H2360.68V712.857H2325.57Z" fill="#333333"/>
<path d="M2255.59 789.86L2229.01 759.949V789.86H2217.76V698.396H2229.01V752.162L2255.09 722.127H2270.79L2238.9 755.87L2270.91 789.86H2255.59Z" fill="#333333"/>
<path d="M2182.9 733.128C2184.88 729.255 2187.68 726.247 2191.31 724.105C2195.02 721.962 2199.51 720.891 2204.78 720.891V732.51H2201.81C2189.21 732.51 2182.9 739.349 2182.9 753.027V789.86H2171.66V722.127H2182.9V733.128Z" fill="#333333"/>
<path d="M2083.93 755.746C2083.93 748.824 2085.33 742.768 2088.13 737.577C2090.93 732.303 2094.76 728.224 2099.62 725.34C2104.57 722.456 2110.05 721.014 2116.06 721.014C2122 721.014 2127.15 722.292 2131.51 724.846C2135.88 727.4 2139.14 730.614 2141.28 734.487V722.127H2152.65V789.86H2141.28V777.252C2139.05 781.208 2135.72 784.504 2131.27 787.14C2126.9 789.695 2121.79 790.972 2115.94 790.972C2109.92 790.972 2104.49 789.489 2099.62 786.522C2094.76 783.556 2090.93 779.395 2088.13 774.039C2085.33 768.683 2083.93 762.585 2083.93 755.746ZM2141.28 755.87C2141.28 750.761 2140.25 746.311 2138.19 742.521C2136.13 738.73 2133.33 735.846 2129.78 733.869C2126.32 731.809 2122.49 730.779 2118.29 730.779C2114.09 730.779 2110.25 731.768 2106.79 733.745C2103.33 735.723 2100.57 738.607 2098.51 742.397C2096.45 746.188 2095.42 750.637 2095.42 755.746C2095.42 760.937 2096.45 765.469 2098.51 769.342C2100.57 773.132 2103.33 776.058 2106.79 778.118C2110.25 780.095 2114.09 781.084 2118.29 781.084C2122.49 781.084 2126.32 780.095 2129.78 778.118C2133.33 776.058 2136.13 773.132 2138.19 769.342C2140.25 765.469 2141.28 760.978 2141.28 755.87Z" fill="#333333"/>
<path d="M2015.85 734.61C2018.08 730.738 2021.37 727.524 2025.74 724.97C2030.19 722.333 2035.34 721.014 2041.19 721.014C2047.2 721.014 2052.64 722.456 2057.5 725.34C2062.45 728.224 2066.32 732.303 2069.12 737.577C2071.92 742.768 2073.32 748.824 2073.32 755.746C2073.32 762.585 2071.92 768.683 2069.12 774.039C2066.32 779.395 2062.45 783.556 2057.5 786.522C2052.64 789.489 2047.2 790.972 2041.19 790.972C2035.42 790.972 2030.31 789.695 2025.86 787.14C2021.49 784.504 2018.16 781.249 2015.85 777.376V821.996H2004.6V722.127H2015.85V734.61ZM2061.83 755.746C2061.83 750.637 2060.8 746.188 2058.74 742.397C2056.68 738.607 2053.88 735.723 2050.33 733.745C2046.87 731.768 2043.04 730.779 2038.84 730.779C2034.72 730.779 2030.89 731.809 2027.35 733.869C2023.88 735.846 2021.08 738.772 2018.94 742.644C2016.88 746.435 2015.85 750.843 2015.85 755.87C2015.85 760.978 2016.88 765.469 2018.94 769.342C2021.08 773.132 2023.88 776.058 2027.35 778.118C2030.89 780.095 2034.72 781.084 2038.84 781.084C2043.04 781.084 2046.87 780.095 2050.33 778.118C2053.88 776.058 2056.68 773.132 2058.74 769.342C2060.8 765.469 2061.83 760.937 2061.83 755.746Z" fill="#333333"/>
<path d="M1959.38 790.725C1953.69 790.725 1948.58 789.736 1944.05 787.759C1939.6 785.699 1936.1 782.897 1933.54 779.354C1930.99 775.728 1929.67 771.567 1929.59 766.87H1941.58C1941.99 770.908 1943.64 774.327 1946.52 777.129C1949.49 779.848 1953.77 781.208 1959.38 781.208C1964.73 781.208 1968.93 779.889 1971.98 777.253C1975.11 774.533 1976.68 771.073 1976.68 766.87C1976.68 763.574 1975.77 760.896 1973.96 758.836C1972.15 756.776 1969.88 755.211 1967.16 754.139C1964.44 753.068 1960.78 751.915 1956.16 750.679C1950.48 749.195 1945.9 747.712 1942.44 746.229C1939.06 744.746 1936.14 742.439 1933.67 739.307C1931.28 736.094 1930.08 731.809 1930.08 726.453C1930.08 721.756 1931.28 717.595 1933.67 713.969C1936.06 710.344 1939.39 707.542 1943.68 705.565C1948.05 703.587 1953.03 702.598 1958.63 702.598C1966.71 702.598 1973.3 704.617 1978.41 708.655C1983.6 712.692 1986.53 718.048 1987.19 724.723H1974.83C1974.41 721.427 1972.68 718.543 1969.63 716.071C1966.59 713.516 1962.55 712.239 1957.52 712.239C1952.82 712.239 1948.99 713.475 1946.03 715.947C1943.06 718.337 1941.58 721.715 1941.58 726.082C1941.58 729.213 1942.44 731.768 1944.17 733.745C1945.99 735.723 1948.17 737.247 1950.72 738.319C1953.36 739.307 1957.03 740.461 1961.72 741.779C1967.41 743.345 1971.98 744.911 1975.44 746.476C1978.9 747.959 1981.87 750.308 1984.34 753.521C1986.81 756.653 1988.05 760.937 1988.05 766.376C1988.05 770.578 1986.94 774.533 1984.71 778.241C1982.49 781.949 1979.19 784.957 1974.83 787.264C1970.46 789.571 1965.31 790.725 1959.38 790.725Z" fill="#333333"/>
<path d="M1886.22 774.286L1872.38 807.534H1864.84L1873.86 774.286H1886.22Z" fill="#333333"/>
<path d="M1834.01 790.972C1828.82 790.972 1824.16 790.107 1820.04 788.376C1815.92 786.564 1812.67 784.092 1810.28 780.96C1807.89 777.747 1806.57 774.08 1806.32 769.96H1817.94C1818.27 773.338 1819.83 776.099 1822.64 778.241C1825.52 780.384 1829.27 781.455 1833.88 781.455C1838.17 781.455 1841.55 780.507 1844.02 778.612C1846.49 776.717 1847.73 774.327 1847.73 771.443C1847.73 768.477 1846.41 766.293 1843.77 764.892C1841.13 763.409 1837.06 761.967 1831.54 760.566C1826.51 759.248 1822.39 757.93 1819.18 756.611C1816.04 755.21 1813.32 753.192 1811.02 750.555C1808.79 747.836 1807.68 744.292 1807.68 739.925C1807.68 736.464 1808.71 733.292 1810.77 730.408C1812.83 727.524 1815.76 725.258 1819.55 723.61C1823.34 721.88 1827.66 721.014 1832.52 721.014C1840.02 721.014 1846.08 722.91 1850.69 726.7C1855.31 730.49 1857.78 735.682 1858.11 742.274H1846.86C1846.61 738.73 1845.17 735.888 1842.54 733.745C1839.98 731.603 1836.52 730.532 1832.15 730.532C1828.12 730.532 1824.9 731.397 1822.51 733.127C1820.12 734.858 1818.93 737.124 1818.93 739.925C1818.93 742.15 1819.63 744.004 1821.03 745.487C1822.51 746.888 1824.33 748.042 1826.47 748.948C1828.69 749.772 1831.74 750.72 1835.61 751.791C1840.48 753.109 1844.43 754.428 1847.48 755.746C1850.53 756.982 1853.12 758.877 1855.27 761.432C1857.49 763.986 1858.64 767.323 1858.73 771.443C1858.73 775.151 1857.7 778.488 1855.64 781.455C1853.58 784.421 1850.65 786.77 1846.86 788.5C1843.15 790.148 1838.87 790.972 1834.01 790.972Z" fill="#333333"/>
<path d="M1763.97 720.891C1772.21 720.891 1778.88 723.404 1783.99 728.431C1789.1 733.375 1791.66 740.544 1791.66 749.937V789.86H1780.53V751.544C1780.53 744.787 1778.84 739.637 1775.46 736.094C1772.09 732.468 1767.47 730.656 1761.62 730.656C1755.69 730.656 1750.95 732.51 1747.41 736.218C1743.95 739.926 1742.22 745.323 1742.22 752.409V789.86H1730.97V722.127H1742.22V731.768C1744.44 728.307 1747.45 725.629 1751.24 723.734C1755.11 721.839 1759.36 720.891 1763.97 720.891Z" fill="#333333"/>
<path d="M1681.45 790.972C1675.1 790.972 1669.34 789.53 1664.14 786.646C1659.04 783.762 1655 779.683 1652.03 774.41C1649.15 769.054 1647.71 762.874 1647.71 755.87C1647.71 748.948 1649.19 742.85 1652.15 737.577C1655.2 732.221 1659.32 728.142 1664.51 725.34C1669.71 722.456 1675.52 721.014 1681.94 721.014C1688.37 721.014 1694.18 722.456 1699.37 725.34C1704.56 728.142 1708.64 732.18 1711.61 737.453C1714.66 742.727 1716.18 748.866 1716.18 755.87C1716.18 762.874 1714.61 769.054 1711.48 774.41C1708.43 779.683 1704.27 783.762 1699 786.646C1693.73 789.53 1687.88 790.972 1681.45 790.972ZM1681.45 781.084C1685.49 781.084 1689.28 780.136 1692.82 778.241C1696.36 776.346 1699.21 773.503 1701.35 769.713C1703.57 765.922 1704.69 761.308 1704.69 755.87C1704.69 750.431 1703.61 745.817 1701.47 742.026C1699.33 738.236 1696.53 735.434 1693.07 733.622C1689.61 731.726 1685.86 730.779 1681.82 730.779C1677.7 730.779 1673.91 731.726 1670.45 733.622C1667.07 735.434 1664.35 738.236 1662.29 742.026C1660.23 745.817 1659.2 750.431 1659.2 755.87C1659.2 761.39 1660.19 766.046 1662.17 769.836C1664.23 773.627 1666.95 776.47 1670.32 778.365C1673.7 780.178 1677.41 781.084 1681.45 781.084Z" fill="#333333"/>
<path d="M1627.3 711.126C1625.16 711.126 1623.34 710.385 1621.86 708.902C1620.38 707.418 1619.64 705.606 1619.64 703.463C1619.64 701.321 1620.38 699.508 1621.86 698.025C1623.34 696.542 1625.16 695.8 1627.3 695.8C1629.36 695.8 1631.09 696.542 1632.49 698.025C1633.97 699.508 1634.72 701.321 1634.72 703.463C1634.72 705.606 1633.97 707.418 1632.49 708.902C1631.09 710.385 1629.36 711.126 1627.3 711.126ZM1632.74 722.127V789.86H1621.49V722.127H1632.74Z" fill="#333333"/>
<path d="M1590.19 731.397V771.32C1590.19 774.616 1590.89 776.964 1592.29 778.365C1593.69 779.683 1596.12 780.343 1599.58 780.343H1607.86V789.86H1597.73C1591.46 789.86 1586.77 788.418 1583.64 785.534C1580.51 782.65 1578.94 777.912 1578.94 771.32V731.397H1570.16V722.127H1578.94V705.07H1590.19V722.127H1607.86V731.397H1590.19Z" fill="#333333"/>
<path d="M1488.74 755.746C1488.74 748.824 1490.14 742.768 1492.94 737.577C1495.74 732.303 1499.57 728.224 1504.44 725.34C1509.38 722.456 1514.86 721.014 1520.87 721.014C1526.81 721.014 1531.96 722.292 1536.32 724.846C1540.69 727.4 1543.95 730.614 1546.09 734.487V722.127H1557.46V789.86H1546.09V777.252C1543.86 781.208 1540.53 784.504 1536.08 787.14C1531.71 789.695 1526.6 790.972 1520.75 790.972C1514.74 790.972 1509.3 789.489 1504.44 786.522C1499.57 783.556 1495.74 779.395 1492.94 774.039C1490.14 768.683 1488.74 762.585 1488.74 755.746ZM1546.09 755.87C1546.09 750.761 1545.06 746.311 1543 742.521C1540.94 738.73 1538.14 735.846 1534.59 733.869C1531.13 731.809 1527.3 730.779 1523.1 730.779C1518.9 730.779 1515.07 731.768 1511.6 733.745C1508.14 735.723 1505.38 738.607 1503.32 742.397C1501.26 746.188 1500.23 750.637 1500.23 755.746C1500.23 760.937 1501.26 765.469 1503.32 769.342C1505.38 773.132 1508.14 776.058 1511.6 778.118C1515.07 780.095 1518.9 781.084 1523.1 781.084C1527.3 781.084 1531.13 780.095 1534.59 778.118C1538.14 776.058 1540.94 773.132 1543 769.342C1545.06 765.469 1546.09 760.978 1546.09 755.87Z" fill="#333333"/>
<path d="M1458.08 733.128C1460.06 729.255 1462.86 726.247 1466.48 724.105C1470.19 721.962 1474.68 720.891 1479.96 720.891V732.51H1476.99C1464.38 732.51 1458.08 739.349 1458.08 753.027V789.86H1446.83V722.127H1458.08V733.128Z" fill="#333333"/>
<path d="M1422.22 711.126C1420.08 711.126 1418.27 710.385 1416.79 708.902C1415.3 707.418 1414.56 705.606 1414.56 703.463C1414.56 701.321 1415.3 699.508 1416.79 698.025C1418.27 696.542 1420.08 695.8 1422.22 695.8C1424.28 695.8 1426.02 696.542 1427.42 698.025C1428.9 699.508 1429.64 701.321 1429.64 703.463C1429.64 705.606 1428.9 707.418 1427.42 708.902C1426.02 710.385 1424.28 711.126 1422.22 711.126ZM1427.66 722.127V789.86H1416.42V722.127H1427.66Z" fill="#333333"/>
<path d="M1344.14 734.61C1346.36 730.738 1349.66 727.524 1354.02 724.97C1358.47 722.333 1363.62 721.014 1369.47 721.014C1375.49 721.014 1380.93 722.456 1385.79 725.34C1390.73 728.224 1394.61 732.303 1397.41 737.577C1400.21 742.768 1401.61 748.824 1401.61 755.746C1401.61 762.585 1400.21 768.683 1397.41 774.039C1394.61 779.395 1390.73 783.556 1385.79 786.522C1380.93 789.489 1375.49 790.972 1369.47 790.972C1363.71 790.972 1358.6 789.695 1354.15 787.14C1349.78 784.504 1346.44 781.249 1344.14 777.376V821.996H1332.89V722.127H1344.14V734.61ZM1390.12 755.746C1390.12 750.637 1389.09 746.188 1387.03 742.397C1384.97 738.607 1382.16 735.723 1378.62 733.745C1375.16 731.768 1371.33 730.779 1367.13 730.779C1363.01 730.779 1359.17 731.809 1355.63 733.869C1352.17 735.846 1349.37 738.772 1347.23 742.644C1345.17 746.435 1344.14 750.843 1344.14 755.87C1344.14 760.978 1345.17 765.469 1347.23 769.342C1349.37 773.132 1352.17 776.058 1355.63 778.118C1359.17 780.095 1363.01 781.084 1367.13 781.084C1371.33 781.084 1375.16 780.095 1378.62 778.118C1382.16 776.058 1384.97 773.132 1387.03 769.342C1389.09 765.469 1390.12 760.937 1390.12 755.746Z" fill="#333333"/>
<path d="M1292.29 790.972C1287.1 790.972 1282.44 790.107 1278.32 788.376C1274.2 786.564 1270.95 784.092 1268.56 780.96C1266.17 777.747 1264.85 774.08 1264.6 769.96H1276.22C1276.55 773.338 1278.12 776.099 1280.92 778.241C1283.8 780.384 1287.55 781.455 1292.17 781.455C1296.45 781.455 1299.83 780.507 1302.3 778.612C1304.78 776.717 1306.01 774.327 1306.01 771.443C1306.01 768.477 1304.69 766.293 1302.06 764.892C1299.42 763.409 1295.34 761.967 1289.82 760.566C1284.79 759.248 1280.67 757.93 1277.46 756.611C1274.33 755.21 1271.61 753.192 1269.3 750.555C1267.08 747.836 1265.96 744.292 1265.96 739.925C1265.96 736.464 1266.99 733.292 1269.05 730.408C1271.11 727.524 1274.04 725.258 1277.83 723.61C1281.62 721.88 1285.95 721.014 1290.81 721.014C1298.31 721.014 1304.36 722.91 1308.98 726.7C1313.59 730.49 1316.06 735.682 1316.39 742.274H1305.15C1304.9 738.73 1303.46 735.888 1300.82 733.745C1298.27 731.603 1294.8 730.532 1290.44 730.532C1286.4 730.532 1283.19 731.397 1280.8 733.127C1278.41 734.858 1277.21 737.124 1277.21 739.925C1277.21 742.15 1277.91 744.004 1279.31 745.487C1280.8 746.888 1282.61 748.042 1284.75 748.948C1286.98 749.772 1290.03 750.72 1293.9 751.791C1298.76 753.109 1302.72 754.428 1305.76 755.746C1308.81 756.982 1311.41 758.877 1313.55 761.432C1315.78 763.986 1316.93 767.323 1317.01 771.443C1317.01 775.151 1315.98 778.488 1313.92 781.455C1311.86 784.421 1308.94 786.77 1305.15 788.5C1301.44 790.148 1297.15 790.972 1292.29 790.972Z" fill="#333333"/>
<path d="M1235.95 770.702H1198.38L1191.45 789.86H1179.59L1210.74 704.205H1223.71L1254.74 789.86H1242.87L1235.95 770.702ZM1232.74 761.555L1217.16 718.048L1201.59 761.555H1232.74Z" fill="#333333"/>
<path d="M1137.23 753.398C1137.23 755.54 1137.11 757.806 1136.86 760.196H1082.72C1083.13 766.87 1085.4 772.102 1089.52 775.893C1093.72 779.601 1098.79 781.455 1104.72 781.455C1109.58 781.455 1113.62 780.342 1116.84 778.118C1120.13 775.81 1122.44 772.762 1123.76 768.971H1135.87C1134.06 775.481 1130.43 780.796 1124.99 784.916C1119.55 788.953 1112.8 790.972 1104.72 790.972C1098.29 790.972 1092.53 789.53 1087.42 786.646C1082.39 783.762 1078.44 779.683 1075.55 774.41C1072.67 769.054 1071.23 762.874 1071.23 755.87C1071.23 748.866 1072.63 742.727 1075.43 737.453C1078.23 732.18 1082.14 728.142 1087.17 725.34C1092.28 722.456 1098.13 721.014 1104.72 721.014C1111.15 721.014 1116.84 722.415 1121.78 725.217C1126.72 728.018 1130.51 731.891 1133.15 736.835C1135.87 741.697 1137.23 747.218 1137.23 753.398ZM1125.61 751.049C1125.61 746.764 1124.66 743.098 1122.77 740.049C1120.87 736.918 1118.28 734.569 1114.98 733.004C1111.77 731.356 1108.18 730.532 1104.23 730.532C1098.54 730.532 1093.68 732.344 1089.64 735.97C1085.69 739.596 1083.42 744.622 1082.84 751.049H1125.61Z" fill="#333333"/>
<path d="M1044.13 731.397V771.32C1044.13 774.616 1044.83 776.964 1046.23 778.365C1047.63 779.683 1050.06 780.343 1053.52 780.343H1061.8V789.86H1051.67C1045.4 789.86 1040.71 788.418 1037.58 785.534C1034.44 782.65 1032.88 777.912 1032.88 771.32V731.397H1024.1V722.127H1032.88V705.07H1044.13V722.127H1061.8V731.397H1044.13Z" fill="#333333"/>
<path d="M1005.8 711.126C1003.66 711.126 1001.84 710.385 1000.36 708.902C998.877 707.418 998.135 705.606 998.135 703.463C998.135 701.321 998.877 699.508 1000.36 698.025C1001.84 696.542 1003.66 695.8 1005.8 695.8C1007.86 695.8 1009.59 696.542 1010.99 698.025C1012.47 699.508 1013.21 701.321 1013.21 703.463C1013.21 705.606 1012.47 707.418 1010.99 708.902C1009.59 710.385 1007.86 711.126 1005.8 711.126ZM1011.24 722.127V789.86H999.989V722.127H1011.24Z" fill="#333333"/>
<path d="M953.93 720.891C962.17 720.891 968.844 723.404 973.953 728.431C979.062 733.375 981.616 740.544 981.616 749.937V789.86H970.492V751.544C970.492 744.787 968.803 739.637 965.425 736.094C962.046 732.468 957.432 730.656 951.581 730.656C945.649 730.656 940.91 732.51 937.367 736.218C933.906 739.926 932.176 745.323 932.176 752.409V789.86H920.928V722.127H932.176V731.768C934.401 728.307 937.408 725.629 941.199 723.734C945.072 721.839 949.315 720.891 953.93 720.891Z" fill="#333333"/>
<path d="M865.336 721.014C871.186 721.014 876.295 722.292 880.662 724.846C885.112 727.4 888.408 730.614 890.55 734.487V722.127H901.921V791.343C901.921 797.523 900.603 803.003 897.966 807.782C895.329 812.643 891.539 816.434 886.595 819.153C881.733 821.872 876.048 823.232 869.538 823.232C860.639 823.232 853.223 821.131 847.29 816.928C841.357 812.726 837.855 806.999 836.784 799.748H847.908C849.144 803.868 851.698 807.164 855.571 809.636C859.444 812.19 864.1 813.467 869.538 813.467C875.718 813.467 880.744 811.531 884.617 807.658C888.572 803.785 890.55 798.347 890.55 791.343V777.129C888.325 781.084 885.029 784.38 880.662 787.017C876.295 789.654 871.186 790.972 865.336 790.972C859.32 790.972 853.841 789.489 848.897 786.522C844.035 783.556 840.203 779.395 837.402 774.039C834.6 768.683 833.199 762.585 833.199 755.746C833.199 748.824 834.6 742.768 837.402 737.577C840.203 732.303 844.035 728.224 848.897 725.34C853.841 722.456 859.32 721.014 865.336 721.014ZM890.55 755.87C890.55 750.761 889.52 746.311 887.46 742.521C885.4 738.73 882.598 735.846 879.055 733.869C875.594 731.809 871.763 730.779 867.56 730.779C863.358 730.779 859.526 731.768 856.065 733.745C852.605 735.723 849.844 738.607 847.784 742.397C845.724 746.188 844.694 750.637 844.694 755.746C844.694 760.937 845.724 765.469 847.784 769.342C849.844 773.132 852.605 776.058 856.065 778.118C859.526 780.095 863.358 781.084 867.56 781.084C871.763 781.084 875.594 780.095 879.055 778.118C882.598 776.058 885.4 773.132 887.46 769.342C889.52 765.469 890.55 760.978 890.55 755.87Z" fill="#333333"/>
<path d="M818.232 703.711V789.86H806.985V703.711H818.232Z" fill="#333333"/>
<path d="M2618.02 330.55C2618.02 299.017 2623.88 271.333 2635.62 247.5C2647.72 223.667 2664.03 205.333 2684.57 192.5C2705.1 179.667 2728.02 173.25 2753.32 173.25C2774.95 173.25 2793.83 177.65 2809.97 186.45C2826.47 195.25 2839.12 206.8 2847.92 221.1V177.65H2941.97V484.55H2847.92V441.1C2838.75 455.4 2825.92 466.95 2809.42 475.75C2793.28 484.55 2774.4 488.95 2752.77 488.95C2727.83 488.95 2705.1 482.533 2684.57 469.7C2664.03 456.5 2647.72 437.983 2635.62 414.15C2623.88 389.95 2618.02 362.083 2618.02 330.55ZM2847.92 331.1C2847.92 307.633 2841.32 289.117 2828.12 275.55C2815.28 261.983 2799.52 255.2 2780.82 255.2C2762.12 255.2 2746.17 261.983 2732.97 275.55C2720.13 288.75 2713.72 307.083 2713.72 330.55C2713.72 354.017 2720.13 372.717 2732.97 386.65C2746.17 400.217 2762.12 407 2780.82 407C2799.52 407 2815.28 400.217 2828.12 386.65C2841.32 373.083 2847.92 354.567 2847.92 331.1Z" fill="#333333"/>
<path d="M2446.09 174.35C2484.22 174.35 2514.47 185.9 2536.84 209C2559.57 232.1 2570.94 264.183 2570.94 305.25V484.55H2477.44V317.9C2477.44 298.1 2472.12 282.883 2461.49 272.25C2451.22 261.25 2436.92 255.75 2418.59 255.75C2400.26 255.75 2385.77 261.25 2375.14 272.25C2364.87 282.883 2359.74 298.1 2359.74 317.9V484.55H2266.24V317.9C2266.24 298.1 2260.92 282.883 2250.29 272.25C2240.02 261.25 2225.72 255.75 2207.39 255.75C2189.06 255.75 2174.57 261.25 2163.94 272.25C2153.67 282.883 2148.54 298.1 2148.54 317.9V484.55H2054.49V177.65H2148.54V216.15C2158.07 203.317 2170.54 193.233 2185.94 185.9C2201.34 178.2 2218.76 174.35 2238.19 174.35C2261.29 174.35 2281.82 179.3 2299.79 189.2C2318.12 199.1 2332.42 213.217 2342.69 231.55C2353.32 214.683 2367.81 200.933 2386.14 190.3C2404.47 179.667 2424.46 174.35 2446.09 174.35Z" fill="#333333"/>
<path d="M1797.8 173.25C1819.43 173.25 1838.31 177.65 1854.45 186.45C1870.95 195.25 1883.6 206.8 1892.4 221.1V177.65H1986.45V484C1986.45 512.233 1980.76 537.717 1969.4 560.45C1958.4 583.55 1941.35 601.883 1918.25 615.45C1895.51 629.017 1867.1 635.8 1833 635.8C1787.53 635.8 1750.68 624.983 1722.45 603.35C1694.21 582.083 1678.08 553.117 1674.05 516.45H1767C1769.93 528.183 1776.9 537.35 1787.9 543.95C1798.9 550.917 1812.46 554.4 1828.6 554.4C1848.03 554.4 1863.43 548.717 1874.8 537.35C1886.53 526.35 1892.4 508.567 1892.4 484V440.55C1883.23 454.85 1870.58 466.583 1854.45 475.75C1838.31 484.55 1819.43 488.95 1797.8 488.95C1772.5 488.95 1749.58 482.533 1729.05 469.7C1708.51 456.5 1692.2 437.983 1680.1 414.15C1668.36 389.95 1662.5 362.083 1662.5 330.55C1662.5 299.017 1668.36 271.333 1680.1 247.5C1692.2 223.667 1708.51 205.333 1729.05 192.5C1749.58 179.667 1772.5 173.25 1797.8 173.25ZM1892.4 331.1C1892.4 307.633 1885.8 289.117 1872.6 275.55C1859.76 261.983 1844 255.2 1825.3 255.2C1806.6 255.2 1790.65 261.983 1777.45 275.55C1764.61 288.75 1758.2 307.083 1758.2 330.55C1758.2 354.017 1764.61 372.717 1777.45 386.65C1790.65 400.217 1806.6 407 1825.3 407C1844 407 1859.76 400.217 1872.6 386.65C1885.8 373.083 1892.4 354.567 1892.4 331.1Z" fill="#333333"/>
<path d="M1566.29 145.75C1549.79 145.75 1536.22 140.983 1525.59 131.45C1515.32 121.55 1510.19 109.45 1510.19 95.15C1510.19 80.4833 1515.32 68.3833 1525.59 58.85C1536.22 48.95 1549.79 44 1566.29 44C1582.42 44 1595.62 48.95 1605.89 58.85C1616.52 68.3833 1621.84 80.4833 1621.84 95.15C1621.84 109.45 1616.52 121.55 1605.89 131.45C1595.62 140.983 1582.42 145.75 1566.29 145.75ZM1613.04 177.65V484.55H1518.99V177.65H1613.04Z" fill="#333333"/>
<path d="M1335.39 174.35C1371.32 174.35 1399.92 186.083 1421.19 209.55C1442.82 232.65 1453.64 264.55 1453.64 305.25V484.55H1360.14V317.9C1360.14 297.367 1354.82 281.417 1344.19 270.05C1333.55 258.683 1319.25 253 1301.29 253C1283.32 253 1269.02 258.683 1258.39 270.05C1247.75 281.417 1242.44 297.367 1242.44 317.9V484.55H1148.39V177.65H1242.44V218.35C1251.97 204.783 1264.8 194.15 1280.94 186.45C1297.07 178.383 1315.22 174.35 1335.39 174.35Z" fill="#333333"/>
<path d="M1098.77 326.15C1098.77 334.95 1098.22 344.117 1097.12 353.65H884.27C885.736 372.717 891.786 387.383 902.42 397.65C913.42 407.55 926.803 412.5 942.57 412.5C966.036 412.5 982.353 402.6 991.52 382.8H1091.62C1086.49 402.967 1077.14 421.117 1063.57 437.25C1050.37 453.383 1033.69 466.033 1013.52 475.2C993.353 484.367 970.803 488.95 945.87 488.95C915.803 488.95 889.036 482.533 865.57 469.7C842.103 456.867 823.77 438.533 810.57 414.7C797.37 390.867 790.77 363 790.77 331.1C790.77 299.2 797.186 271.333 810.02 247.5C823.22 223.667 841.553 205.333 865.02 192.5C888.486 179.667 915.436 173.25 945.87 173.25C975.57 173.25 1001.97 179.483 1025.07 191.95C1048.17 204.417 1066.14 222.2 1078.97 245.3C1092.17 268.4 1098.77 295.35 1098.77 326.15ZM1002.52 301.4C1002.52 285.267 997.02 272.433 986.02 262.9C975.02 253.367 961.27 248.6 944.77 248.6C929.003 248.6 915.62 253.183 904.62 262.35C893.986 271.517 887.386 284.533 884.82 301.4H1002.52Z" fill="#333333"/>
</svg>
