<svg width="675" height="210" viewBox="0 0 675 210" fill="none" xmlns="http://www.w3.org/2000/svg">
<path d="M251.085 99.0084C251.085 101.568 250.914 103.872 250.573 105.92H198.733C199.159 111.04 200.951 115.051 204.109 117.952C207.266 120.854 211.149 122.304 215.757 122.304C222.413 122.304 227.149 119.446 229.965 113.728H249.293C247.245 120.555 243.319 126.187 237.517 130.624C231.714 134.976 224.589 137.152 216.141 137.152C209.314 137.152 203.17 135.659 197.709 132.672C192.333 129.6 188.109 125.291 185.037 119.744C182.05 114.198 180.557 107.798 180.557 100.544C180.557 93.2058 182.05 86.7631 185.037 81.2164C188.023 75.6698 192.205 71.4031 197.581 68.4164C202.957 65.4298 209.143 63.9364 216.141 63.9364C222.882 63.9364 228.898 65.3871 234.189 68.2884C239.565 71.1898 243.703 75.3284 246.605 80.7044C249.591 85.9951 251.085 92.0964 251.085 99.0084ZM232.525 93.8884C232.439 89.2804 230.775 85.6111 227.533 82.8804C224.29 80.0644 220.322 78.6564 215.629 78.6564C211.191 78.6564 207.437 80.0218 204.365 82.7524C201.378 85.3978 199.543 89.1098 198.861 93.8884H232.525Z" fill="#0C6291"/>
<path d="M303.461 64.0644C311.909 64.0644 318.735 66.7524 323.941 72.1284C329.146 77.4191 331.749 84.8431 331.749 94.4004V136H313.829V96.8324C313.829 91.2004 312.421 86.8911 309.605 83.9044C306.789 80.8324 302.949 79.2964 298.085 79.2964C293.135 79.2964 289.21 80.8324 286.309 83.9044C283.493 86.8911 282.085 91.2004 282.085 96.8324V136H264.165V65.0884H282.085V73.9204C284.474 70.8484 287.503 68.4591 291.173 66.7524C294.927 64.9604 299.023 64.0644 303.461 64.0644Z" fill="#0C6291"/>
<path d="M357.878 56.6404C354.72 56.6404 352.075 55.6591 349.942 53.6964C347.894 51.6484 346.87 49.1311 346.87 46.1444C346.87 43.1578 347.894 40.6831 349.942 38.7204C352.075 36.6724 354.72 35.6484 357.878 35.6484C361.035 35.6484 363.638 36.6724 365.686 38.7204C367.819 40.6831 368.886 43.1578 368.886 46.1444C368.886 49.1311 367.819 51.6484 365.686 53.6964C363.638 55.6591 361.035 56.6404 357.878 56.6404ZM366.71 65.0884V136H348.79V65.0884H366.71Z" fill="#0C6291"/>
<path d="M412.191 63.9364C417.481 63.9364 422.132 65.0031 426.143 67.1364C430.153 69.1844 433.311 71.8724 435.615 75.2004V65.0884H453.663V136.512C453.663 143.083 452.34 148.928 449.695 154.048C447.049 159.254 443.081 163.35 437.791 166.336C432.5 169.408 426.1 170.944 418.591 170.944C408.521 170.944 400.244 168.598 393.759 163.904C387.359 159.211 383.732 152.811 382.879 144.704H400.671C401.609 147.947 403.615 150.507 406.687 152.384C409.844 154.347 413.641 155.328 418.079 155.328C423.284 155.328 427.508 153.75 430.751 150.592C433.993 147.52 435.615 142.827 435.615 136.512V125.504C433.311 128.832 430.111 131.606 426.015 133.824C422.004 136.043 417.396 137.152 412.191 137.152C406.217 137.152 400.756 135.616 395.807 132.544C390.857 129.472 386.932 125.163 384.031 119.616C381.215 113.984 379.807 107.542 379.807 100.288C379.807 93.1204 381.215 86.7631 384.031 81.2164C386.932 75.6698 390.815 71.4031 395.679 68.4164C400.628 65.4298 406.132 63.9364 412.191 63.9364ZM435.615 100.544C435.615 96.1924 434.761 92.4804 433.055 89.4084C431.348 86.2511 429.044 83.8618 426.143 82.2404C423.241 80.5338 420.127 79.6804 416.799 79.6804C413.471 79.6804 410.399 80.4911 407.583 82.1124C404.767 83.7338 402.463 86.1231 400.671 89.2804C398.964 92.3524 398.111 96.0218 398.111 100.288C398.111 104.555 398.964 108.31 400.671 111.552C402.463 114.71 404.767 117.142 407.583 118.848C410.484 120.555 413.556 121.408 416.799 121.408C420.127 121.408 423.241 120.598 426.143 118.976C429.044 117.27 431.348 114.88 433.055 111.808C434.761 108.651 435.615 104.896 435.615 100.544Z" fill="#0C6291"/>
<path d="M559.229 64.0644C567.933 64.0644 574.93 66.7524 580.221 72.1284C585.597 77.4191 588.285 84.8431 588.285 94.4004V136H570.365V96.8324C570.365 91.2858 568.957 87.0618 566.141 84.1604C563.325 81.1738 559.485 79.6804 554.621 79.6804C549.757 79.6804 545.874 81.1738 542.973 84.1604C540.157 87.0618 538.749 91.2858 538.749 96.8324V136H520.829V96.8324C520.829 91.2858 519.421 87.0618 516.605 84.1604C513.789 81.1738 509.949 79.6804 505.085 79.6804C500.135 79.6804 496.21 81.1738 493.309 84.1604C490.493 87.0618 489.085 91.2858 489.085 96.8324V136H471.165V65.0884H489.085V73.6644C491.389 70.6778 494.333 68.3311 497.917 66.6244C501.586 64.9178 505.597 64.0644 509.949 64.0644C515.495 64.0644 520.445 65.2591 524.797 67.6484C529.149 69.9524 532.519 73.2804 534.909 77.6324C537.213 73.5364 540.541 70.2511 544.893 67.7764C549.33 65.3018 554.109 64.0644 559.229 64.0644Z" fill="#0C6291"/>
<path d="M600.682 100.288C600.682 93.1204 602.09 86.7631 604.906 81.2164C607.807 75.6698 611.69 71.4031 616.554 68.4164C621.503 65.4298 627.007 63.9364 633.066 63.9364C638.356 63.9364 642.964 65.0031 646.89 67.1364C650.9 69.2698 654.1 71.9578 656.49 75.2004V65.0884H674.538V136H656.49V125.632C654.186 128.96 650.986 131.734 646.89 133.952C642.879 136.086 638.228 137.152 632.938 137.152C626.964 137.152 621.503 135.616 616.554 132.544C611.69 129.472 607.807 125.163 604.906 119.616C602.09 113.984 600.682 107.542 600.682 100.288ZM656.49 100.544C656.49 96.1924 655.636 92.4804 653.93 89.4084C652.223 86.2511 649.919 83.8618 647.018 82.2404C644.116 80.5338 641.002 79.6804 637.674 79.6804C634.346 79.6804 631.274 80.4911 628.458 82.1124C625.642 83.7338 623.338 86.1231 621.546 89.2804C619.839 92.3524 618.986 96.0218 618.986 100.288C618.986 104.555 619.839 108.31 621.546 111.552C623.338 114.71 625.642 117.142 628.458 118.848C631.359 120.555 634.431 121.408 637.674 121.408C641.002 121.408 644.116 120.598 647.018 118.976C649.919 117.27 652.223 114.88 653.93 111.808C655.636 108.651 656.49 104.896 656.49 100.544Z" fill="#0C6291"/>
<g filter="url(#filter0_i_635_30)">
<path d="M87.2968 13.4711V87.566H13.2024V25.3935C13.206 22.2326 14.4632 19.2021 16.6983 16.967C18.9335 14.7319 21.9639 13.4746 25.1248 13.4711H87.2968ZM100.499 0.268555H25.1248C18.4613 0.26856 12.0707 2.91565 7.35889 7.6275C2.64708 12.3393 5.83582e-06 18.73 0 25.3935V100.768H100.499V0.268555Z" fill="#0C6291"/>
<path d="M87.297 122.011V196.106H63.4523V145.856H13.2027V122.011H87.297ZM100.499 108.809H0.000244141V159.059H50.2498V209.309H100.499V108.809Z" fill="#A63446"/>
<path d="M135.674 13.4711C138.835 13.4747 141.865 14.7319 144.101 16.967C146.336 19.2022 147.593 22.2326 147.596 25.3936V37.316H123.752V13.4711H135.674ZM135.674 0.268566H110.549V50.5185H160.799V25.3935C160.799 18.73 158.152 12.3393 153.44 7.6275C148.728 2.91565 142.338 0.268569 135.674 0.268566Z" fill="#7E1946"/>
<path d="M147.597 71.7621V184.184C147.593 187.345 146.336 190.376 144.101 192.611C141.865 194.846 138.835 196.103 135.674 196.107H123.752V71.7621H147.597ZM160.799 58.5596H110.549V209.309H135.674C138.974 209.309 142.241 208.66 145.289 207.397C148.337 206.134 151.107 204.284 153.44 201.951C155.773 199.617 157.624 196.848 158.886 193.799C160.149 190.751 160.799 187.484 160.799 184.184V58.5596Z" fill="#0C6291"/>
</g>
<defs>
<filter id="filter0_i_635_30" x="0" y="0.268555" width="169.799" height="213.041" filterUnits="userSpaceOnUse" color-interpolation-filters="sRGB">
<feFlood flood-opacity="0" result="BackgroundImageFix"/>
<feBlend mode="normal" in="SourceGraphic" in2="BackgroundImageFix" result="shape"/>
<feColorMatrix in="SourceAlpha" type="matrix" values="0 0 0 0 0 0 0 0 0 0 0 0 0 0 0 0 0 0 127 0" result="hardAlpha"/>
<feOffset dx="9" dy="4"/>
<feGaussianBlur stdDeviation="6"/>
<feComposite in2="hardAlpha" operator="arithmetic" k2="-1" k3="1"/>
<feColorMatrix type="matrix" values="0 0 0 0 0 0 0 0 0 0 0 0 0 0 0 0 0 0 0.3 0"/>
<feBlend mode="normal" in2="shape" result="effect1_innerShadow_635_30"/>
</filter>
</defs>
</svg>
