<svg xmlns="http://www.w3.org/2000/svg" viewBox="0 0 1000 500">
  <defs>
    <style>
      .cls-1 {
        font-size: 20px;
        font-family: Poppins-Black, Poppins;
        font-weight: 800;
      }

      .cls-2 {
        fill: #0c6291;
      }

      .cls-3 {
        fill: #a63446;
      }

      .cls-4 {
        fill: #7e1946;
      }
    </style>
  </defs>
  <title>enigma</title>
  <g id="Layer_1" data-name="Layer 1">
    <text class="cls-1" transform="translate(1.50122 -8.49756)">name with symbol | horizontal</text>
  </g>
  <g id="Symbol-NM">
    <g>
      <g>
        <path class="cls-2" d="M150.87866,149.81152v85.26679H65.61206V165.799a16.00552,16.00552,0,0,1,15.98731-15.98752h69.27929m10.65845-10.65835H81.59937A26.64579,26.64579,0,0,0,54.95361,165.799v79.93762h106.5835V139.15317Z"/>
        <path class="cls-3" d="M150.87866,264.92169v85.26679H118.90381V296.89673H65.61206v-31.975h85.2666m10.65845-10.65835H54.95361v53.29177h53.29175v53.29175h53.29175V254.26334Z"/>
        <path class="cls-4" d="M198.84131,149.81152A16.00557,16.00557,0,0,1,214.82886,165.799v15.98752H182.854v-31.975h15.98731m0-10.65835H172.19556v53.29175H225.4873V165.799a26.646,26.646,0,0,0-26.646-26.64587Z"/>
        <path class="cls-2" d="M214.82886,211.62991V334.201a16.0056,16.0056,0,0,1-15.98755,15.98755H182.854V211.62991h31.97486m10.65844-10.65832H172.19556V360.84686h26.64575a26.646,26.646,0,0,0,26.646-26.64587V200.97159Z"/>
      </g>
      <g>
        <path class="cls-2" d="M354.0371,252.8887H278.04076q.90111,11.913,8.84427,19.13438a27.91189,27.91189,0,0,0,19.49553,7.22083q16.60625,0,23.46711-13.89933h22.20364a44.80423,44.80423,0,0,1-16.33686,22.47421q-11.82534,8.75727-29.33389,8.75488a50.78986,50.78986,0,0,1-25.54348-6.40793,45.58848,45.58848,0,0,1-17.69092-18.05208q-6.40792-11.643-6.40793-26.98812,0-15.34039,6.22913-26.98694a43.78589,43.78589,0,0,1,17.50975-17.96149,52.11154,52.11154,0,0,1,25.90345-6.31853,50.68618,50.68618,0,0,1,25.09293,6.13735,43.3922,43.3922,0,0,1,17.14977,17.24036q6.13259,11.10123,6.13616,25.54349A64.30265,64.30265,0,0,1,354.0371,252.8887Zm-20.759-16.60862q-.18237-11.37121-8.12194-18.23207-7.94912-6.85848-19.67671-6.85967a26.433,26.433,0,0,0-18.23445,6.76908q-7.58081,6.77088-9.02545,18.32266Z"/>
        <path class="cls-2" d="M446.19151,198.73246a34.69636,34.69636,0,0,1,14.53225,14.44167q5.23147,9.57077,5.23505,23.106v58.669h-20.399V239.34935q0-13.35759-6.67969-20.48843-6.67968-7.13025-18.23206-7.13024-11.55357,0-18.32266,7.13024-6.76908,7.132-6.77027,20.48843V294.949H374.97728V195.48321H395.5551V206.8556a34.08135,34.08135,0,0,1,12.90643-9.56659,41.291,41.291,0,0,1,16.69922-3.43043A44.61688,44.61688,0,0,1,446.19151,198.73246Z"/>
        <path class="cls-2" d="M493.21393,178.51461a13.17833,13.17833,0,0,1,9.3878-22.5648,12.54048,12.54048,0,0,1,9.20662,3.7904,13.51924,13.51924,0,0,1,0,18.7744,12.54052,12.54052,0,0,1-9.20662,3.7904A12.74721,12.74721,0,0,1,493.21393,178.51461Zm19.49553,16.9686V294.949H492.13164V195.48321Z"/>
        <path class="cls-2" d="M600.35115,198.46189a39.38584,39.38584,0,0,1,13.98872,11.463V195.48321h20.759V296.57367a50.84709,50.84709,0,0,1-5.77619,24.46119,41.77213,41.77213,0,0,1-16.69683,16.878q-10.92422,6.13437-26.08463,6.13735-20.22143,0-33.57723-9.47719A34.95324,34.95324,0,0,1,537.8,308.84956h20.399a22.12424,22.12424,0,0,0,10.01953,12.54527q7.67019,4.78091,18.32265,4.78449,12.45468,0,20.12727-7.582,7.67019-7.58259,7.67138-22.02365V279.96623A41.95015,41.95015,0,0,1,600.17,291.79037a42.37544,42.37544,0,0,1-20.30844,4.7833,44.49212,44.49212,0,0,1-23.73887-6.5891,46.48569,46.48569,0,0,1-16.9686-18.41205,56.62592,56.62592,0,0,1-6.22674-26.80695q0-14.98281,6.22674-26.53638a45.37685,45.37685,0,0,1,40.70747-24.37061A44.1124,44.1124,0,0,1,600.35115,198.46189Zm9.74777,28.79274a29.80708,29.80708,0,0,0-11.10182-11.55357,29.08772,29.08772,0,0,0-14.804-3.97038,29.564,29.564,0,0,0-14.80163,3.881,29.2547,29.2547,0,0,0-11.10182,11.37239,35.495,35.495,0,0,0-4.24335,17.78151,37.02631,37.02631,0,0,0,4.24335,18.05089A29.88433,29.88433,0,0,0,569.482,274.6406a28.69414,28.69414,0,0,0,14.71105,4.06216,29.0536,29.0536,0,0,0,14.804-3.97157,29.62625,29.62625,0,0,0,11.10182-11.643,36.56755,36.56755,0,0,0,4.24095-17.96268A36.05047,36.05047,0,0,0,610.09892,227.25463Z"/>
        <path class="cls-2" d="M803.61436,198.73246a35.225,35.225,0,0,1,14.62045,14.44167q5.32444,9.57077,5.32564,23.106v58.669h-20.399V239.34935q0-13.35759-6.67969-20.48843-6.67968-7.13025-18.23206-7.13024-11.55357,0-18.32266,7.13024-6.76908,7.132-6.76789,20.48843V294.949h-20.399V239.34935q0-13.35759-6.67969-20.48843-6.67968-7.13025-18.23206-7.13024-11.55357,0-18.32265,7.13024-6.76909,7.132-6.77028,20.48843V294.949H662.17759V195.48321h20.57782V206.8556a34.21561,34.21561,0,0,1,12.81823-9.56659,40.6402,40.6402,0,0,1,16.60625-3.43043,44.23572,44.23572,0,0,1,21.30252,5.05506,34.57814,34.57814,0,0,1,14.44167,14.62165,33.34171,33.34171,0,0,1,14.07931-14.35108,41.65471,41.65471,0,0,1,20.5802-5.32563A44.61692,44.61692,0,0,1,803.61436,198.73246Z"/>
        <path class="cls-2" d="M849.10155,218.22919A45.37685,45.37685,0,0,1,889.809,193.85858a43.43145,43.43145,0,0,1,20.48962,4.60331,41.62132,41.62132,0,0,1,13.98872,11.463V195.48321h20.759V294.949h-20.759V280.14621A40.88929,40.88929,0,0,1,910.02687,291.881a46.156,46.156,0,0,1-44.04731-1.89639,46.7058,46.7058,0,0,1-16.878-18.41205,56.6258,56.6258,0,0,1-6.22675-26.80695Q842.8748,229.78276,849.10155,218.22919Zm70.94485,9.02544a29.80708,29.80708,0,0,0-11.10182-11.55357,29.08769,29.08769,0,0,0-14.804-3.97038,29.56406,29.56406,0,0,0-14.80163,3.881,29.25477,29.25477,0,0,0-11.10182,11.37239,35.495,35.495,0,0,0-4.24334,17.78151,37.0263,37.0263,0,0,0,4.24334,18.05089,29.88435,29.88435,0,0,0,11.19241,11.82414,28.69413,28.69413,0,0,0,14.711,4.06216,29.05357,29.05357,0,0,0,14.804-3.97157,29.62625,29.62625,0,0,0,11.10182-11.643,36.56756,36.56756,0,0,0,4.241-17.96268A36.05048,36.05048,0,0,0,920.0464,227.25463Z"/>
      </g>
    </g>
  </g>
</svg>
