<svg id="Layer_1" data-name="Layer 1" xmlns="http://www.w3.org/2000/svg" viewBox="0 0 1000 1000">
  <defs>
    <style>
      .cls-1 {
        fill: #0c6291;
      }

      .cls-2 {
        fill: #a63446;
      }

      .cls-3 {
        fill: #7e1946;
      }
    </style>
  </defs>
  <title>enigma-fill</title>
  <g id="Fill-Main">
    <path class="cls-1" d="M545.6731,70.67307V436.05768H180.28847v-296.875a68.58722,68.58722,0,0,1,68.50961-68.50961h296.875M591.34619,25H248.79808A114.18279,114.18279,0,0,0,134.61537,139.18268V481.73077H591.34619V25Z"/>
    <path class="cls-2" d="M545.6731,563.94226V929.3269H408.65387V700.96149H180.28847V563.94226H545.6731m45.67309-45.67309H134.61537V746.63458h228.3654V975H591.34619V518.26917Z"/>
    <path class="cls-3" d="M751.2019,70.67307a68.58726,68.58726,0,0,1,68.50965,68.50961v68.50961H682.69226V70.67307H751.2019m0-45.67308H637.01923V253.36537H865.38458V139.18268A114.18263,114.18263,0,0,0,751.2019,25Z"/>
    <path class="cls-1" d="M819.71149,335.577V860.81726a68.58726,68.58726,0,0,1-68.50959,68.50958H682.69232V335.577H819.71149m45.67309-45.67307H637.01923v685.096H751.2019A114.18256,114.18256,0,0,0,865.38458,860.81726V289.9039Z"/>
  </g>
</svg>
