<svg id="Layer_1" data-name="Layer 1" xmlns="http://www.w3.org/2000/svg" viewBox="0 0 1000 1000">
  <defs>
    <style>
      .cls-1 {
        fill: #0c6291;
      }

      .cls-2 {
        fill: #a63446;
      }

      .cls-3 {
        fill: #7e1946;
      }
    </style>
  </defs>
  <title>enigma</title>
  <g>
    <path class="cls-1" d="M536.923,141.92317V437.30768H241.53853V197.30775a55.4473,55.4473,0,0,1,55.38457-55.38458H536.923m36.9231-36.92309H296.9231a92.30761,92.30761,0,0,0-92.30765,92.30767v276.923H573.84613V105.00008Z"/>
    <path class="cls-2" d="M536.923,540.69232V836.0769H426.15387V651.46149H241.53853V540.69232H536.923m36.9231-36.92309H204.61545V688.38458H389.23077V873H573.84613V503.76923Z"/>
    <path class="cls-3" d="M703.0769,141.9231a55.44739,55.44739,0,0,1,55.38465,55.38464v55.38464H647.69226V141.9231H703.0769m0-36.92307H610.76923V289.61545H795.38458V197.30774A92.30772,92.30772,0,0,0,703.0769,105Z"/>
    <path class="cls-1" d="M758.46149,356.077V780.69226A55.44729,55.44729,0,0,1,703.0769,836.0769H647.69232V356.077H758.46149m36.92309-36.92313H610.76923V873H703.0769a92.30767,92.30767,0,0,0,92.30768-92.30774V319.1539Z"/>
  </g>
</svg>
